<?xml version="1.0" standalone="no"?>
<!DOCTYPE svg PUBLIC "-//W3C//DTD SVG 20010904//EN"
 "http://www.w3.org/TR/2001/REC-SVG-20010904/DTD/svg10.dtd">
<svg version="1.0" xmlns="http://www.w3.org/2000/svg"
 width="512.000000pt" height="512.000000pt" viewBox="0 0 512.000000 512.000000"
 preserveAspectRatio="xMidYMid meet">
<metadata>
Created by potrace 1.16, written by Peter Selinger 2001-2019
</metadata>
<g transform="translate(0.000000,512.000000) scale(0.100000,-0.100000)"
fill="#023047" stroke="none">
<path d="M2411 4920 c-374 -32 -741 -169 -1026 -383 -125 -94 -325 -283 -411
-390 -78 -98 -200 -275 -213 -311 -6 -14 -25 -42 -44 -63 -94 -107 -158 -216
-202 -347 -15 -43 -35 -92 -45 -110 -11 -17 -35 -74 -56 -126 -32 -83 -36
-105 -36 -182 0 -83 -1 -89 -33 -130 -40 -52 -55 -102 -55 -188 0 -54 6 -78
34 -136 24 -51 39 -102 51 -179 20 -128 40 -196 107 -365 82 -207 209 -451
294 -565 19 -25 24 -27 38 -16 14 12 16 11 16 -4 0 -10 9 -48 20 -84 32 -110
90 -402 90 -459 0 -57 23 -114 59 -146 16 -15 20 -27 16 -50 -6 -35 0 -48 31
-64 12 -6 24 -24 27 -39 9 -43 69 -126 98 -137 21 -7 38 -3 83 20 30 15 68 38
83 50 34 28 27 45 -36 87 -34 24 -81 85 -69 90 76 37 78 39 78 80 0 50 -24
100 -63 133 -27 23 -38 26 -78 21 -46 -6 -49 -4 -87 38 -45 48 -64 98 -133
361 -22 87 -43 163 -46 170 -2 7 5 18 18 24 20 11 21 10 14 -6 -28 -63 16
-127 126 -184 48 -25 98 -60 119 -83 60 -68 231 -218 371 -327 74 -57 159
-127 189 -156 30 -28 66 -57 79 -64 64 -33 316 -91 494 -115 178 -23 315 -19
573 16 l228 30 72 -37 71 -37 92 32 c106 37 179 73 202 101 15 18 110 74 334
197 44 24 92 56 106 71 14 16 42 71 63 123 29 74 46 102 79 131 39 35 43 37
51 19 6 -13 -4 -59 -33 -151 -23 -73 -41 -139 -41 -146 0 -28 16 -13 27 24 22
77 63 218 69 232 4 13 6 13 15 0 27 -43 30 -90 10 -172 -10 -46 -22 -103 -26
-128 -10 -59 -35 -107 -78 -149 l-35 -33 -41 33 c-23 18 -41 35 -41 39 0 11
45 50 57 50 14 0 53 48 53 64 0 19 -53 17 -87 -4 -18 -10 -40 -34 -49 -52 -9
-18 -25 -41 -35 -51 -20 -19 -26 -73 -9 -79 6 -2 -17 -39 -50 -82 -33 -43 -60
-84 -60 -91 0 -17 91 -75 117 -75 26 0 63 43 98 115 15 30 31 55 35 55 17 0
41 33 35 48 -3 9 12 33 39 62 49 52 57 74 97 264 l23 109 -26 71 c-14 39 -29
78 -32 87 -5 10 12 39 50 85 32 38 82 103 112 144 30 41 83 104 118 140 50 52
74 88 118 180 30 63 71 163 92 222 23 65 49 120 66 139 62 68 75 128 84 399 5
151 4 181 -11 220 -21 54 -36 118 -65 265 -44 225 -155 508 -287 731 -181 304
-377 528 -668 761 -89 71 -159 148 -190 208 -14 26 -154 96 -264 132 -91 30
-100 30 -516 20 -33 -1 -125 1 -205 5 -80 3 -187 2 -239 -2z m629 -20 c12 -8
12 -10 -5 -9 -11 0 -29 4 -40 9 -18 8 -18 9 5 9 14 0 32 -4 40 -9z m270 -11
c59 -12 253 -90 284 -114 34 -26 11 -26 -55 -1 -68 25 -280 111 -314 126 -17
8 -17 9 5 5 14 -2 50 -9 80 -16z m-470 -4 c148 -15 203 -26 253 -52 26 -13 31
-13 47 2 16 14 24 13 112 -19 119 -43 207 -87 253 -127 29 -26 48 -33 99 -38
60 -6 70 -11 161 -80 482 -368 824 -868 965 -1415 47 -180 83 -496 84 -741 1
-127 -8 -159 -57 -206 -22 -22 -42 -46 -43 -52 -1 -7 -21 -66 -44 -132 -57
-165 -136 -321 -179 -353 -18 -14 -86 -96 -151 -182 -112 -146 -214 -260 -224
-249 -3 3 44 74 105 159 188 262 289 453 378 714 75 220 86 280 85 486 0 135
-6 205 -23 305 -78 444 -292 879 -597 1216 -100 109 -110 127 -20 35 299 -307
538 -766 632 -1213 10 -46 19 -81 22 -79 16 17 -86 386 -149 535 -128 302
-328 601 -535 801 -37 36 -64 59 -60 53 17 -30 -14 -8 -74 53 -36 36 -58 62
-49 59 19 -7 49 19 49 42 0 21 -29 53 -48 53 -20 0 -52 -29 -52 -46 0 -14 -57
19 -172 98 -152 104 -453 221 -667 260 -145 26 -438 35 -578 19 -279 -33 -585
-132 -798 -258 -44 -27 -112 -58 -151 -71 -88 -28 -134 -58 -229 -150 -60 -59
-77 -81 -90 -124 -8 -28 -15 -56 -15 -62 0 -5 -37 -58 -82 -118 -70 -93 -88
-110 -127 -125 -25 -9 -52 -21 -58 -26 -28 -21 -10 14 58 114 109 158 165 223
312 359 161 151 247 217 387 298 243 139 518 230 790 261 120 13 323 12 480
-4z m393 -16 c91 -30 301 -123 288 -127 -5 -2 -48 13 -93 34 -46 21 -130 55
-188 75 -110 40 -116 54 -7 18z m425 -184 c11 -11 -2 -7 -40 11 -32 16 -58 32
-58 36 0 10 79 -27 98 -47z m-734 -20 c138 -25 308 -81 440 -143 88 -42 114
-58 97 -60 -13 -2 -62 14 -110 36 -119 56 -267 105 -407 138 -100 23 -148 28
-302 32 -333 8 -573 -47 -885 -204 -109 -54 -127 -61 -127 -46 0 22 228 129
390 183 125 41 231 65 355 79 121 13 444 5 549 -15z m-104 -26 c160 -22 340
-77 508 -154 l84 -39 -34 -17 c-58 -30 -139 -110 -188 -186 -44 -69 -46 -71
-70 -57 -35 19 -163 61 -241 79 -256 58 -605 29 -844 -70 -47 -19 -87 -35 -89
-35 -2 0 -16 19 -29 43 -37 62 -110 141 -162 174 -25 15 -45 31 -45 35 0 13
206 107 321 146 260 89 529 117 789 81z m853 -205 c26 -9 49 -20 52 -25 3 -4
-11 -1 -32 8 -25 11 -66 17 -118 17 -67 0 -90 -4 -139 -27 -75 -35 -130 -80
-192 -156 -55 -68 -71 -74 -26 -9 65 93 150 166 222 191 60 21 175 21 233 1z
m181 -3 c3 -4 3 -11 0 -14 -8 -8 -34 3 -34 14 0 11 27 12 34 0z m-2305 -32
c123 -28 237 -126 322 -275 57 -100 62 -113 47 -133 -6 -9 -2 -6 11 5 l23 22
-20 45 c-50 112 -146 239 -226 298 -52 39 -22 37 37 -2 61 -40 104 -91 171
-204 30 -50 62 -97 70 -105 24 -19 19 -33 -22 -56 -20 -12 -75 -56 -120 -99
-46 -42 -86 -74 -89 -72 -3 3 5 35 18 71 66 197 -60 433 -246 460 l-40 6 34
-13 c60 -23 111 -76 147 -151 41 -85 44 -109 11 -78 -29 27 -47 29 -23 3 9
-10 18 -30 20 -44 1 -14 8 -33 16 -41 16 -20 12 -20 -33 -1 -50 21 -52 19 -23
-16 14 -17 26 -41 26 -55 0 -19 -5 -24 -26 -24 l-26 0 27 -31 c18 -23 25 -41
23 -63 -3 -29 -5 -31 -38 -28 -34 4 -34 3 -17 -15 14 -16 16 -31 10 -82 -6
-66 -17 -65 -34 4 -7 30 -7 30 -8 -8 -1 -21 8 -55 19 -77 11 -22 20 -41 20
-43 0 -2 -20 -12 -44 -21 -52 -20 -80 -46 -50 -46 15 0 12 -6 -13 -26 -34 -27
-44 -60 -18 -66 10 -2 -1 -20 -35 -57 -30 -33 -50 -64 -50 -78 0 -27 -41 -48
-75 -39 -35 9 -75 60 -81 102 l-6 39 21 -32 c23 -36 49 -47 31 -14 -22 42 -12
97 25 142 20 23 40 51 46 61 13 24 1 88 -12 67 -5 -8 -9 -23 -9 -35 0 -11 -15
-38 -32 -58 l-33 -38 -1 69 c0 50 -9 92 -33 158 -48 131 -61 191 -61 275 0
152 45 286 117 349 64 57 150 74 252 50z m2137 -27 c115 -59 191 -225 182
-397 -4 -74 -8 -88 -59 -182 -30 -57 -55 -99 -57 -94 -2 7 30 155 54 246 4 16
3 17 -5 5 -9 -12 -11 -9 -11 15 -1 38 -41 -72 -70 -193 -26 -107 -25 -119 7
-198 l27 -66 -17 -66 c-18 -69 -43 -102 -78 -102 -11 0 -19 7 -19 16 0 9 -14
34 -32 56 -26 34 -30 43 -20 59 18 28 15 34 -14 36 -16 0 -41 16 -63 38 l-36
37 28 -6 c43 -10 32 13 -18 35 -50 22 -64 37 -45 49 10 6 11 21 4 62 -7 44
-13 54 -31 56 -13 2 -23 -1 -23 -7 0 -6 -7 -11 -15 -11 -23 0 -18 11 22 52
l37 38 -27 0 c-35 0 -34 13 4 62 l31 39 -26 -7 c-34 -8 -33 3 5 55 34 47 32
60 -6 43 -14 -7 -31 -12 -37 -12 -12 0 36 65 72 97 36 32 4 30 -44 -3 l-39
-27 6 34 c4 19 25 70 46 114 22 44 38 81 36 84 -10 9 -78 -45 -104 -82 -81
-119 -91 -246 -35 -429 10 -32 -12 -19 -44 27 -26 37 -117 115 -170 144 -12 7
-6 21 31 72 25 35 57 75 72 89 15 14 44 50 65 81 57 82 122 135 200 160 45 15
171 4 216 -19z m114 -7 c13 -14 21 -25 18 -25 -2 0 -15 11 -28 25 -13 14 -21
25 -18 25 2 0 15 -11 28 -25z m-2616 -133 c-43 -83 -53 -262 -23 -400 5 -24
26 -85 45 -135 l36 -92 -16 -101 c-9 -56 -16 -121 -17 -145 0 -40 -1 -42 -11
-19 -6 14 -12 86 -13 160 -2 128 -4 138 -34 201 -43 90 -64 197 -56 279 9 80
44 194 79 255 35 59 42 58 10 -3z m1644 13 c94 -18 194 -47 264 -77 39 -17 46
-23 38 -37 -25 -44 -24 -44 -87 -17 -168 70 -383 98 -606 78 -147 -13 -305
-48 -390 -86 l-56 -24 -16 25 c-21 31 -20 32 95 74 104 37 219 65 325 78 105
13 329 6 433 -14z m1090 -77 c29 -63 82 -149 135 -220 186 -250 305 -481 401
-776 67 -207 80 -293 80 -527 1 -167 -3 -227 -17 -294 -31 -144 -85 -290 -167
-448 -79 -154 -205 -348 -219 -338 -5 2 -15 -3 -22 -13 -13 -15 -12 -16 4 -3
9 7 17 10 17 6 0 -11 -92 -117 -97 -112 -4 5 90 163 113 188 16 18 18 39 4 39
-19 0 -10 23 55 134 128 221 207 441 241 668 21 143 14 386 -15 531 -67 332
-229 678 -437 937 -42 52 -53 75 -59 116 -3 28 -21 87 -39 132 -18 45 -32 82
-30 82 2 0 25 -46 52 -102z m-1225 2 c140 -12 249 -36 339 -77 l61 -27 -28
-24 c-18 -15 -35 -22 -49 -18 -12 3 -41 8 -66 11 -43 5 -43 4 20 -18 128 -45
159 -72 295 -247 172 -220 255 -361 284 -482 21 -89 10 -264 -13 -190 -3 9 -3
-7 0 -35 2 -29 19 -97 36 -150 75 -236 36 -479 -104 -650 l-43 -53 -8 48 c-14
84 -68 255 -104 332 -19 41 -43 100 -53 130 -10 30 -21 62 -24 71 -6 13 1 20
26 28 24 9 29 14 19 20 -11 7 -8 13 13 26 15 10 36 35 47 57 11 21 24 38 30
38 6 0 8 7 5 16 -3 8 -2 13 3 10 5 -3 12 5 15 19 7 28 21 32 33 10 14 -24 32
-2 47 60 10 41 12 73 7 100 l-9 40 -2 -40 c-1 -22 -5 -51 -9 -65 -7 -24 -8
-24 -18 -5 -6 11 -18 43 -27 70 -20 61 -42 96 -81 127 l-30 23 32 -40 c30 -38
70 -151 59 -163 -3 -3 -6 1 -6 10 0 27 -68 95 -99 100 l-30 4 30 -33 c38 -44
37 -51 -3 -17 -67 56 -131 68 -185 34 -37 -22 -44 -10 -17 28 23 33 67 52 121
53 44 1 46 1 21 11 -20 7 -47 5 -103 -9 -58 -15 -75 -16 -75 -7 0 15 39 54 54
54 5 0 7 3 4 6 -4 3 -16 1 -27 -6 -19 -10 -21 -8 -21 22 0 53 -10 78 -32 78
-18 0 -18 -1 -4 -16 21 -20 21 -20 -16 -56 -18 -18 -25 -26 -15 -18 28 21 33
2 6 -27 -14 -16 -16 -21 -5 -13 17 14 18 13 13 -5 -4 -11 -11 -56 -16 -101 -6
-45 -16 -94 -23 -109 l-13 -28 -6 24 c-7 24 -7 24 -8 2 -1 -13 -3 -23 -6 -23
-3 0 -30 15 -58 33 -58 37 -103 85 -123 132 -7 17 -13 23 -13 15 -1 -28 37
-98 76 -140 l38 -43 -32 16 c-89 46 -127 174 -85 285 41 108 105 172 202 199
l45 13 -47 -4 c-61 -5 -110 -36 -157 -100 -100 -135 -120 -227 -69 -319 l28
-49 -78 7 c-42 4 -80 10 -83 14 -4 3 -14 107 -22 231 -13 179 -21 243 -41 313
-19 62 -26 111 -26 170 0 113 -15 129 -24 26 -7 -89 -14 -107 -58 -157 -16
-19 -31 -47 -35 -62 -5 -28 -7 -29 -52 -24 l-46 6 52 -27 c29 -15 62 -38 73
-52 16 -20 21 -22 26 -10 3 8 -2 29 -10 46 -24 45 -20 63 21 114 44 54 42 55
71 -73 13 -57 17 -125 17 -287 0 -116 -4 -215 -8 -219 -5 -5 -36 -11 -70 -14
l-62 -5 -1 85 c-1 89 -28 185 -60 211 -11 9 -10 -1 7 -42 44 -112 24 -238 -45
-280 -38 -23 -53 -24 -35 -2 10 11 1 9 -27 -7 -37 -22 -44 -23 -60 -10 -43 36
-67 135 -43 183 10 21 9 21 -10 -1 l-20 -23 -26 50 c-25 49 -33 91 -17 91 4 0
17 -7 30 -15 16 -12 20 -13 17 -2 -5 13 -56 47 -70 47 -4 0 -3 -6 3 -13 9 -10
7 -19 -4 -35 -9 -14 -12 -31 -8 -48 6 -24 5 -26 -12 -19 -10 5 -37 10 -59 11
l-40 3 35 -9 c36 -9 80 -50 80 -76 0 -12 -7 -11 -40 6 -21 11 -46 20 -55 20
-21 0 -19 -20 3 -20 9 0 26 -7 36 -15 18 -14 16 -15 -31 -15 -35 0 -67 -8
-106 -28 -59 -30 -63 -21 -12 30 27 27 19 47 -12 29 -26 -14 -78 -71 -96 -106
-26 -48 -20 -3 7 58 13 30 41 74 62 98 l39 43 -33 -23 c-38 -26 -97 -112 -108
-154 -7 -32 -24 -46 -24 -20 0 10 -5 25 -11 33 -8 11 -9 -4 -4 -54 7 -83 46
-149 58 -98 3 14 6 12 14 -8 6 -14 27 -49 47 -79 20 -29 36 -57 36 -62 0 -5
17 -21 38 -36 39 -29 43 -38 28 -63 -6 -9 1 -6 14 5 l23 20 -7 -20 c-34 -98
-65 -167 -89 -203 -16 -24 -43 -73 -60 -110 -32 -66 -32 -69 -32 -223 0 -125
2 -153 12 -140 7 9 13 13 13 10 0 -3 -11 -19 -23 -37 l-24 -32 -65 108 c-123
201 -148 276 -155 452 -4 114 -2 133 21 210 42 136 64 231 69 295 l5 60 -26
-82 c-14 -46 -28 -83 -33 -83 -12 0 -29 95 -29 159 0 134 92 307 342 638 116
155 166 201 251 237 62 27 62 27 20 22 -31 -3 -46 1 -58 14 -14 16 -12 19 37
39 97 40 267 75 413 84 28 2 59 4 71 5 12 1 78 -3 147 -8z m-1640 -226 l-1
-106 -46 -67 c-234 -350 -339 -646 -352 -1001 -11 -261 37 -554 128 -795 34
-93 139 -268 203 -340 29 -32 24 -22 -23 55 -79 127 -94 158 -135 275 -206
596 -138 1262 181 1769 67 108 82 99 18 -11 -208 -361 -307 -782 -276 -1176
22 -278 86 -543 175 -722 103 -208 390 -587 559 -738 283 -252 408 -323 638
-362 163 -27 333 -45 424 -45 144 0 512 94 858 220 95 34 88 17 -14 -33 -131
-64 -329 -127 -560 -178 -245 -55 -301 -56 -625 -10 -213 30 -250 38 -327 71
-87 37 -230 132 -388 256 -111 88 -380 358 -455 458 l-59 78 22 18 c29 24 28
26 -10 34 -39 8 -87 -23 -151 -95 l-43 -48 -79 131 c-103 171 -136 250 -184
439 -91 360 -112 626 -71 909 12 85 30 187 40 225 48 188 162 438 265 580 36
50 66 95 69 100 2 6 6 8 9 5 3 -3 -28 -57 -70 -120 -109 -165 -211 -394 -247
-552 -47 -207 -62 -587 -32 -802 26 -177 82 -394 137 -529 16 -38 29 -83 29
-99 0 -73 61 -138 117 -123 74 18 95 99 43 158 -35 41 -74 51 -114 31 -16 -8
-30 -13 -31 -12 -15 20 -74 204 -105 328 -54 221 -71 352 -71 555 0 482 108
751 546 1361 5 8 10 14 10 14 0 0 -1 -48 -2 -106z m2961 -93 c95 -128 164
-242 236 -394 137 -287 199 -560 187 -832 -12 -273 -88 -533 -233 -792 l-35
-63 -49 72 c-26 40 -99 128 -161 195 -110 120 -113 125 -169 255 -31 73 -74
163 -94 200 -36 64 -37 70 -40 185 -3 99 -8 134 -35 217 -35 110 -36 128 -19
239 11 76 13 79 47 93 69 29 119 97 141 193 10 44 10 70 0 139 -13 83 -13 86
10 126 46 82 117 222 122 244 4 12 9 22 12 22 3 0 39 -45 80 -99z m-2304 -71
c0 -11 -4 -20 -9 -20 -5 0 -7 9 -4 20 3 11 7 20 9 20 2 0 4 -9 4 -20z m2037
-122 c-3 -8 -6 -5 -6 6 -1 11 2 17 5 13 3 -3 4 -12 1 -19z m-2574 -319 c19
-64 45 -100 96 -135 20 -13 46 -31 59 -40 12 -9 36 -19 54 -23 30 -6 32 -9 61
-123 l29 -117 -25 -93 c-14 -51 -29 -124 -33 -162 -6 -64 -12 -77 -74 -170
-83 -124 -112 -180 -141 -276 -12 -41 -38 -100 -58 -130 -20 -31 -49 -84 -65
-118 -16 -34 -33 -62 -36 -62 -21 0 -103 240 -136 395 -81 387 -14 838 180
1220 l61 120 6 -115 c3 -63 13 -140 22 -171z m-336 -201 c-3 -8 -6 -5 -6 6 -1
11 2 17 5 13 3 -3 4 -12 1 -19z m2343 7 c0 -8 -9 -15 -20 -15 -20 0 -26 11
-13 23 12 13 33 7 33 -8z m-2283 -17 c-3 -8 -6 -5 -6 6 -1 11 2 17 5 13 3 -3
4 -12 1 -19z m2357 -42 c-16 -65 -120 -91 -169 -41 -14 13 -25 31 -25 39 0 9
10 4 29 -15 42 -41 90 -40 126 3 17 20 25 39 21 51 -4 18 -3 19 10 5 10 -10
13 -24 8 -42z m-1286 27 c2 -8 -6 -13 -22 -13 -25 0 -33 10 -19 24 10 10 36 3
41 -11z m-1153 -104 c-34 -202 -31 -399 10 -724 3 -25 -2 -15 -15 30 -51 185
-53 521 -4 735 23 101 28 76 9 -41z m69 62 c-4 -17 -9 -30 -11 -27 -3 2 -2 19
2 36 9 41 17 33 9 -9z m1926 -1 c117 -39 211 -91 267 -148 61 -63 126 -183
143 -269 7 -32 23 -100 36 -152 13 -51 24 -103 24 -115 0 -18 -3 -16 -19 11
-34 55 -111 245 -104 256 3 5 2 8 -3 4 -5 -3 -26 27 -46 66 -21 40 -31 63 -23
52 27 -37 47 -60 39 -45 -15 31 -46 71 -51 66 -3 -3 -35 21 -70 54 -67 61
-204 136 -293 161 -25 6 -88 12 -140 13 -82 0 -107 -4 -183 -31 -168 -59 -338
-183 -404 -294 -39 -66 -125 -316 -118 -340 3 -10 -2 -33 -12 -51 l-17 -33 -7
60 c-14 115 18 245 101 403 89 172 224 283 403 333 117 33 378 33 477 -1z
m-784 -35 c-7 -29 -44 -53 -95 -61 -37 -6 -44 -3 -76 29 -21 21 -35 45 -35 59
1 22 2 21 17 -7 20 -39 52 -64 81 -65 40 0 80 28 94 66 14 39 25 23 14 -21z
m1270 28 c-32 -62 -92 -96 -161 -92 -23 2 -46 0 -52 -4 -13 -8 -27 8 -19 22 4
5 23 5 48 0 74 -17 144 12 168 71 7 16 16 30 21 30 5 0 3 -12 -5 -27z m33
-103 c-12 -28 -34 -59 -50 -70 -54 -39 -115 -35 -138 8 -8 15 -3 17 37 17 61
0 96 24 135 94 29 51 32 54 35 29 2 -14 -7 -49 -19 -78z m-284 80 c3 -5 -1
-10 -9 -10 -9 0 -16 5 -16 10 0 6 4 10 9 10 6 0 13 -4 16 -10z m-1138 -90 c22
0 60 7 83 15 66 23 59 10 -7 -15 -75 -28 -112 -21 -164 31 -21 21 -39 43 -39
48 0 4 20 -11 44 -35 37 -37 49 -44 83 -44z m-1043 31 c-4 -23 -9 -40 -11 -37
-3 3 -2 23 2 46 4 23 9 39 11 37 3 -2 2 -23 -2 -46z m1857 -6 c24 -8 67 -33
96 -54 28 -22 62 -45 75 -51 20 -11 20 -9 -6 19 -39 41 -25 39 33 -3 103 -76
163 -161 236 -330 54 -128 81 -219 90 -313 4 -37 21 -104 37 -148 16 -44 36
-105 44 -135 l14 -55 -4 71 c-3 44 -14 94 -30 134 -14 35 -26 66 -26 69 1 23
92 -142 110 -199 78 -242 -118 -446 -279 -290 -42 41 -93 139 -95 182 -1 14
-5 23 -10 20 -5 -3 -7 2 -3 11 3 10 3 17 -1 17 -4 0 -8 8 -9 18 -2 21 -99 256
-137 331 -15 30 -46 80 -68 113 -48 71 -57 120 -34 183 10 25 23 45 29 45 6 0
42 -18 80 -41 86 -51 172 -136 222 -220 69 -114 115 -164 115 -124 0 8 -4 15
-9 15 -5 0 -33 37 -61 83 -75 118 -124 173 -215 240 -44 33 -84 66 -88 74 -10
17 27 63 50 63 41 0 186 -126 252 -219 17 -24 31 -41 31 -36 0 14 -71 143 -88
160 -26 25 -124 96 -150 108 -12 6 -25 22 -29 36 -17 75 -96 167 -166 196 -86
36 -294 28 -375 -14 -48 -25 -114 -95 -141 -148 -12 -24 -25 -43 -29 -43 -4 0
-20 -12 -37 -26 -16 -14 -23 -22 -15 -18 8 5 -10 -17 -41 -47 -31 -30 -70 -82
-87 -115 -39 -78 -51 -122 -18 -66 41 70 96 128 175 186 l74 54 24 -28 c28
-34 29 -47 3 -55 -11 -3 -20 -11 -20 -17 0 -6 -3 -9 -6 -6 -3 3 -17 -5 -31
-18 -27 -25 -49 -33 -37 -12 4 7 3 8 -5 4 -6 -4 -9 -11 -6 -16 3 -5 -11 -21
-32 -37 -35 -27 -168 -197 -180 -231 -11 -29 45 28 94 95 57 81 148 162 225
203 58 31 62 32 75 15 7 -11 13 -33 13 -49 0 -21 3 -27 9 -18 7 11 10 10 15
-3 13 -35 6 -66 -21 -90 -17 -14 -32 -20 -39 -15 -7 6 -23 -16 -48 -63 l-39
-72 73 70 c77 74 77 69 -10 -62 -26 -37 -54 -93 -65 -123 -10 -30 -49 -129
-87 -220 -65 -156 -100 -216 -119 -204 -4 2 -15 -9 -24 -26 -20 -40 -89 -84
-129 -84 -52 0 -102 38 -133 102 -23 47 -27 69 -28 137 0 72 5 92 45 194 26
66 58 128 77 150 39 43 41 30 9 -47 -29 -69 -59 -209 -54 -254 3 -29 5 -26 13
22 l10 55 30 -60 c31 -61 73 -101 96 -92 9 3 4 9 -14 17 -71 34 -98 177 -57
295 11 33 30 111 40 173 23 133 83 294 142 382 82 123 259 232 439 270 57 12
184 4 240 -15z m-801 -100 c60 0 61 0 39 -17 -31 -26 -71 -22 -118 12 -37 27
-81 82 -81 102 0 3 22 -17 49 -45 49 -52 50 -52 111 -52z m-1079 -50 c-5 -47
-9 -63 -10 -40 -1 47 12 157 16 135 2 -8 -1 -51 -6 -95z m1896 61 c26 -27 26
-28 3 -12 -25 16 -81 22 -94 9 -4 -4 -27 -6 -52 -4 -43 2 -45 2 -40 -23 6 -33
-2 -33 -14 -1 -11 28 -30 34 -30 8 0 -15 -1 -15 -13 1 -19 25 -96 33 -136 13
-44 -22 -28 -1 17 23 33 17 54 19 184 17 l148 -2 27 -29z m-2341 -193 c2 -99
-1 -132 -9 -118 -16 29 -11 255 6 255 1 0 3 -62 3 -137z m1914 88 c0 -11 10
-27 22 -35 l22 -16 -26 0 c-14 0 -29 7 -32 16 -9 24 -7 54 4 54 6 0 10 -9 10
-19z m489 -41 c11 0 25 8 30 18 10 16 10 16 11 -1 0 -20 -42 -42 -64 -34 -10
4 -16 18 -15 34 0 27 1 27 9 6 5 -13 18 -23 29 -23z m2030 -109 c1 -108 -5
-83 -11 44 -4 70 -3 96 3 70 4 -22 8 -73 8 -114z m-4002 -13 c-2 -24 -4 -5 -4
42 0 47 2 66 4 43 2 -24 2 -62 0 -85z m1883 37 c24 5 24 5 6 -10 -11 -8 -23
-15 -27 -15 -12 0 -59 41 -59 51 0 6 12 1 27 -11 19 -14 35 -19 53 -15z m-233
0 c-5 -10 -18 -15 -44 -14 -29 2 -32 3 -11 6 14 2 32 11 39 19 14 17 24 11 16
-11z m859 -267 c33 -141 37 -167 48 -288 l5 -55 -35 65 c-25 47 -36 81 -38
120 -2 30 -11 114 -20 185 -27 221 -17 215 40 -27z m-1900 64 c33 -171 142
-464 204 -551 11 -14 23 -52 29 -83 22 -124 109 -246 192 -268 24 -7 64 -9 89
-6 l45 6 43 -73 c23 -39 67 -123 97 -184 54 -113 83 -155 44 -65 -12 26 -32
76 -46 112 l-25 65 28 -25 c31 -28 28 -23 -38 77 -26 40 -48 76 -48 81 0 5 17
15 38 21 46 15 78 3 127 -48 25 -27 30 -42 36 -106 8 -82 29 -128 69 -154 24
-15 25 -15 9 4 -34 42 -50 147 -33 213 7 25 5 25 95 1 31 -8 38 -14 43 -44 4
-19 34 -87 67 -152 70 -137 81 -189 54 -259 l-17 -46 -18 29 c-18 30 -71 75
-125 108 -16 10 -2 -8 33 -40 72 -65 87 -90 97 -160 6 -47 8 -48 22 -30 29 39
63 115 74 164 11 51 -2 131 -21 131 -5 0 -17 24 -28 53 -11 28 -42 93 -69 143
l-50 91 71 -5 c61 -4 172 9 298 34 27 5 27 5 16 -27 -11 -32 -84 -113 -123
-136 -19 -11 -19 -12 3 -12 59 -2 132 62 182 160 19 35 66 76 77 65 3 -3 0
-14 -8 -25 -74 -102 -81 -113 -60 -102 11 7 57 45 101 86 44 41 82 75 85 75 3
0 24 -9 46 -21 31 -15 39 -24 33 -37 -44 -103 -109 -300 -73 -222 7 14 25 53
40 88 15 34 36 72 45 85 16 22 16 22 10 -13 -5 -29 -4 -32 6 -15 22 41 113
161 156 208 80 88 105 183 78 299 l-15 67 74 147 c41 80 85 174 97 208 l23 61
13 -70 c9 -45 12 -122 10 -217 -2 -81 -2 -145 0 -143 3 2 11 30 18 62 19 79
18 258 -2 344 -19 83 -13 100 11 32 10 -26 35 -86 57 -132 55 -117 64 -176 44
-299 -8 -54 -18 -107 -21 -118 -4 -10 2 -5 11 11 10 17 25 54 34 83 l17 54 11
-71 c24 -142 16 -210 -53 -437 -20 -65 -34 -124 -33 -132 5 -26 107 192 128
274 26 98 28 220 6 333 -9 46 -16 90 -16 99 0 20 90 -101 135 -183 42 -75 81
-191 90 -268 7 -54 5 -61 -22 -100 -17 -23 -48 -73 -70 -112 -50 -86 -110
-155 -172 -197 -44 -31 -42 -28 32 52 42 47 77 88 77 92 0 8 -200 -143 -340
-255 -150 -121 -358 -209 -622 -263 -123 -26 -151 -28 -378 -28 -270 -1 -345
9 -542 75 -125 41 -337 145 -423 206 -192 137 -392 371 -506 590 -32 62 -39
86 -36 115 4 31 99 248 109 248 2 0 1 -25 0 -55 -5 -74 22 -206 59 -284 33
-72 48 -78 24 -10 -63 175 -59 371 9 539 34 83 136 263 144 255 4 -4 12 -32
18 -63z m349 -240 l-25 -37 0 85 c0 50 7 108 17 144 l18 61 8 -108 c7 -105 7
-109 -18 -145z m1495 88 c21 -40 28 -106 10 -95 -13 8 -47 135 -36 135 3 0 15
-18 26 -40z m-750 -15 c-7 -9 -44 -37 -83 -62 -38 -26 -103 -83 -145 -127 -42
-45 -62 -63 -45 -41 48 61 123 131 204 190 81 59 88 62 69 40z m258 -149 c32
-35 69 -78 81 -97 19 -28 17 -27 -10 6 -68 83 -157 163 -222 199 -37 21 -67
42 -67 47 0 19 163 -96 218 -155z m670 24 c-35 -64 -44 -75 -46 -55 -2 17 10
42 40 80 23 30 44 55 46 55 2 0 -16 -36 -40 -80z m-796 -33 c24 -15 59 -41 78
-58 l35 -31 -35 20 c-106 61 -124 66 -200 67 -65 0 -85 -4 -138 -31 -70 -35
-81 -30 -23 11 89 61 203 70 283 22z m-1039 -91 c26 -40 47 -82 47 -92 -1 -18
-1 -18 -16 1 -16 20 -84 150 -84 160 0 13 9 0 53 -69z m972 4 c-3 -4 9 -32 25
-61 16 -30 30 -46 30 -36 0 10 -5 27 -10 38 -13 23 -8 24 33 2 18 -9 36 -16
40 -15 4 1 10 -5 13 -13 4 -8 10 -15 16 -15 5 0 6 6 2 13 -6 8 -3 8 9 -2 9 -7
27 -33 39 -58 12 -25 24 -40 26 -35 4 13 -24 69 -47 96 -15 18 -15 18 6 7 27
-14 40 -36 59 -101 10 -35 29 -62 66 -98 48 -47 51 -52 40 -76 -7 -16 -8 -28
-2 -31 18 -11 10 -25 -30 -50 -54 -34 -91 -40 -126 -21 -58 31 -58 29 -25 82
43 67 66 154 41 154 -5 0 -10 -10 -10 -22 0 -35 -39 -105 -77 -138 -30 -27
-42 -31 -72 -27 -20 3 -63 0 -97 -5 -51 -9 -66 -8 -97 7 -45 21 -57 41 -73
120 -7 33 -12 50 -13 37 -1 -31 -26 -78 -69 -130 -49 -61 -72 -70 -115 -43
-19 11 -44 21 -55 21 -19 0 -20 3 -10 25 6 14 20 25 31 25 10 0 27 10 36 22
11 13 23 18 30 13 9 -5 10 -10 2 -18 -6 -6 -11 -16 -11 -21 0 -6 7 -3 14 7 8
10 12 27 9 37 -3 12 0 20 7 20 9 0 9 4 2 13 -11 14 3 61 17 53 4 -3 17 14 27
37 10 23 36 59 57 80 29 29 36 41 27 51 -8 11 -2 17 30 30 55 22 72 20 34 -3
-38 -23 -59 -50 -25 -32 21 11 21 11 -2 -26 l-22 -38 41 32 c22 17 52 37 66
43 18 9 24 18 21 31 -4 14 0 19 16 19 16 0 21 -6 21 -25 0 -34 17 -32 25 3 3
16 12 29 20 29 8 0 12 -4 10 -7z m-134 -38 c-5 -10 -18 -25 -27 -33 -16 -13
-16 -12 -4 11 11 22 28 39 38 40 1 0 -2 -8 -7 -18z m256 12 c-3 -3 -12 -4 -19
-1 -8 3 -5 6 6 6 11 1 17 -2 13 -5z m-487 -8 c0 -2 -8 -10 -17 -17 -16 -13
-17 -12 -4 4 13 16 21 21 21 13z m525 -18 c4 -3 2 -9 -3 -12 -5 -3 -15 1 -21
8 -10 11 -9 14 3 12 9 -1 18 -5 21 -8z m-1605 -403 c67 -109 147 -211 250
-318 100 -105 278 -247 310 -247 10 0 51 -18 92 -39 221 -119 480 -181 758
-181 319 0 614 64 875 190 109 53 313 174 374 221 35 28 40 12 6 -17 -138
-115 -364 -236 -565 -304 -264 -88 -421 -114 -695 -114 -280 -1 -419 24 -648
115 -164 65 -141 39 33 -38 94 -41 74 -43 -28 -2 -172 68 -310 167 -478 342
-205 212 -320 382 -404 592 -47 119 -35 111 23 -15 30 -63 73 -146 97 -185z
m2930 224 c17 -33 30 -64 28 -68 -2 -4 -17 23 -35 61 -40 84 -34 90 7 7z
m-2049 -117 c-43 -61 -146 -107 -186 -85 -12 7 -5 10 27 10 52 0 97 22 140 68
40 42 46 44 19 7z m350 -44 c11 -15 30 -30 42 -34 22 -7 22 -8 -3 -14 -28 -7
-66 -1 -93 16 -18 10 -17 13 5 59 20 41 23 44 27 24 1 -13 12 -36 22 -51z
m880 -58 c-25 -22 -57 -25 -81 -10 -11 7 -6 10 20 11 19 0 44 4 55 9 31 13 32
11 6 -10z m-616 -64 c43 -11 47 -14 30 -23 -35 -18 -108 -23 -173 -11 -35 5
-61 13 -58 16 9 8 99 31 126 31 14 0 47 -6 75 -13z m-1746 -86 c13 -63 101
-376 119 -422 6 -15 27 -44 46 -66 25 -27 33 -45 30 -60 -4 -13 3 -33 20 -55
34 -44 33 -51 -7 -75 l-34 -19 -29 45 c-16 26 -35 58 -42 72 l-12 25 6 -29 c3
-16 19 -49 35 -73 33 -47 31 -77 -3 -46 -39 35 -71 101 -65 136 6 39 -40 272
-90 454 -35 129 -36 134 -18 153 10 11 21 20 25 20 4 0 13 -27 19 -60z m3305
-186 c3 -8 2 -12 -4 -9 -6 3 -10 10 -10 16 0 14 7 11 14 -7z m-314 -67 c0 -2
-10 -12 -22 -23 l-23 -19 19 23 c18 21 26 27 26 19z m170 -27 c0 -18 -49 -62
-61 -54 -6 4 3 18 23 35 38 32 38 32 38 19z m-220 -14 c0 -2 -8 -10 -17 -17
-16 -13 -17 -12 -4 4 13 16 21 21 21 13z m160 -124 c0 -4 -7 -18 -17 -31 -15
-23 -17 -23 -30 -5 -12 16 -11 20 9 31 27 14 38 16 38 5z m-130 -43 c16 -29 1
-39 -17 -12 l-15 22 -96 -48 c-107 -54 -193 -82 -244 -80 -31 1 -30 2 11 10
74 14 192 58 256 93 72 40 91 43 105 15z m-2617 -111 c23 -22 32 -33 19 -22
-23 18 -24 18 -63 -4 -46 -26 -50 -19 -12 20 l27 28 -32 0 c-18 0 -32 5 -32
10 0 26 53 8 93 -32z m2822 6 c-16 -14 -42 -39 -57 -55 -36 -38 -37 -11 -1 31
25 30 54 48 78 49 6 0 -3 -11 -20 -25z m-2935 -10 c0 -8 -4 -12 -10 -9 -5 3
-10 13 -10 21 0 8 5 12 10 9 6 -3 10 -13 10 -21z m130 -59 c0 -10 -75 -35 -89
-30 -27 11 13 31 67 34 12 0 22 -1 22 -4z m-1 -59 c-18 -18 -59 -30 -59 -18 0
9 63 42 69 36 3 -3 -2 -11 -10 -18z m2779 -34 c23 -19 42 -38 42 -43 0 -11
-128 82 -129 94 -1 12 39 -12 87 -51z m-2883 38 c3 -5 0 -10 -8 -10 -22 0 -97
-58 -97 -75 0 -8 -4 -15 -10 -15 -5 0 -10 9 -10 20 0 12 19 32 52 55 57 38 64
40 73 25z m2309 4 c34 -13 8 -90 -29 -83 -29 6 -30 29 -1 29 32 0 43 17 23 37
-12 12 -19 13 -38 2 -22 -11 -23 -11 -10 4 14 18 29 21 55 11z m-2249 -92 c22
-51 14 -64 -41 -66 -32 -1 -41 4 -61 33 -28 42 -28 43 -1 60 18 11 22 11 30
-3 12 -22 28 -20 28 2 0 22 11 35 20 25 3 -5 15 -27 25 -51z m2735 -15 c-23
-21 -44 -37 -47 -34 -2 3 10 26 29 50 26 35 36 42 47 34 10 -9 5 -19 -29 -50z
m-754 42 c24 -6 44 -15 44 -19 0 -3 -15 -11 -33 -17 -27 -8 -44 -6 -85 9 -29
11 -50 24 -47 29 8 12 67 11 121 -2z"/>
<path d="M2537 4823 c18 -2 50 -2 70 0 21 2 7 4 -32 4 -38 0 -55 -2 -38 -4z"/>
<path d="M3612 4618 c-27 -27 -7 -78 29 -78 21 0 49 26 49 45 0 35 -53 58 -78
33z m48 -23 c0 -8 -4 -15 -9 -15 -13 0 -22 16 -14 24 11 11 23 6 23 -9z"/>
<path d="M4730 2525 c0 -8 7 -15 15 -15 8 0 15 7 15 15 0 8 -7 15 -15 15 -8 0
-15 -7 -15 -15z"/>
<path d="M1874 3958 l-19 -23 23 19 c21 18 27 26 19 26 -2 0 -12 -10 -23 -22z"/>
<path d="M1438 3634 c-23 -12 -39 -34 -25 -34 17 0 97 34 97 41 0 14 -42 10
-72 -7z"/>
<path d="M1357 3522 c-25 -27 -21 -69 8 -98 21 -21 29 -23 40 -14 8 7 15 22
15 34 0 12 6 28 13 35 10 10 6 17 -16 37 -34 29 -39 29 -60 6z"/>
<path d="M3742 4050 c-16 -94 -44 -155 -117 -250 -32 -41 -62 -86 -67 -100
-15 -39 -1 -87 33 -112 16 -12 44 -51 61 -85 17 -35 34 -63 39 -63 15 0 29 38
28 72 -1 27 -3 29 -6 8 -6 -30 -23 -51 -23 -28 0 9 -16 39 -35 68 l-35 51 36
71 c19 38 33 72 30 75 -7 7 -51 -44 -73 -84 -20 -38 -33 -42 -33 -13 0 28 24
74 72 134 22 27 48 66 58 86 27 53 51 156 48 203 -3 38 -4 34 -16 -33z"/>
<path d="M3182 3964 c15 -15 30 -26 33 -23 2 3 -10 16 -28 29 l-32 23 27 -29z"/>
<path d="M4288 1839 c-31 -60 -55 -109 -53 -109 9 0 120 209 113 215 -2 2 -29
-46 -60 -106z"/>
<path d="M2480 4053 c-135 -2 -239 -8 -244 -13 -7 -7 93 -10 287 -10 191 0
297 4 297 10 0 6 -11 10 -24 10 -13 0 -36 1 -52 3 -16 2 -135 2 -264 0z"/>
<path d="M2320 3932 c-130 -91 -170 -123 -181 -143 -13 -25 -18 -28 106 57 85
59 154 119 144 128 -2 2 -33 -17 -69 -42z"/>
<path d="M2608 3955 c-9 -41 4 -99 36 -165 35 -75 34 -118 -4 -155 -43 -41
-39 -68 17 -129 57 -61 63 -64 63 -34 0 13 12 41 26 61 33 48 25 57 -20 23
l-35 -26 -25 25 c-15 14 -26 29 -26 33 0 3 17 23 37 44 l38 39 -16 44 c-9 25
-14 45 -12 45 3 0 26 -15 52 -34 64 -47 105 -66 138 -65 l28 0 -25 10 c-50 19
-208 132 -224 160 -10 16 -23 57 -30 91 -11 55 -13 59 -18 33z"/>
<path d="M2052 3912 c-51 -51 -95 -107 -127 -162 -5 -8 22 18 60 58 38 40 88
84 111 98 23 14 48 32 56 42 9 11 0 8 -26 -8 l-39 -23 18 26 c27 42 10 32 -53
-31z"/>
<path d="M3030 3899 c41 -38 84 -75 95 -81 28 -16 -49 69 -104 115 -77 63 -70
40 9 -34z"/>
<path d="M2850 3951 c0 -13 113 -115 168 -151 40 -27 34 -19 -41 54 -86 84
-127 116 -127 97z"/>
<path d="M2698 3906 c-6 -32 -2 -36 39 -36 26 0 45 -10 81 -43 26 -24 68 -56
93 -71 25 -14 79 -56 120 -92 41 -36 87 -75 103 -87 l29 -21 -24 33 c-36 50
-153 146 -229 191 -39 22 -74 50 -80 60 -6 11 -34 32 -63 46 -29 15 -55 31
-58 36 -4 6 -9 -2 -11 -16z"/>
<path d="M2329 3859 c-94 -116 -92 -114 -287 -239 -45 -29 -80 -55 -77 -58 7
-7 200 103 261 148 47 35 153 174 141 186 -2 3 -20 -14 -38 -37z"/>
<path d="M2226 3551 c29 -16 65 -47 82 -67 29 -34 52 -39 52 -10 0 8 7 19 15
26 8 7 15 17 15 23 0 5 -9 2 -21 -9 -16 -14 -22 -15 -28 -5 -5 7 -12 13 -17
13 -5 0 -27 11 -49 23 -22 13 -53 27 -70 30 -24 5 -20 1 21 -24z"/>
<path d="M3085 3532 c6 -5 28 -15 50 -22 74 -23 139 -62 198 -119 56 -53 58
-54 37 -19 -40 68 -138 136 -220 153 -19 3 -44 9 -55 12 -13 3 -17 2 -10 -5z"/>
<path d="M1961 3514 c-30 -8 -73 -23 -97 -34 -51 -22 -140 -103 -168 -152 -16
-28 -11 -25 40 24 111 106 226 158 350 158 78 0 126 -19 178 -68 24 -23 34
-29 28 -16 -18 35 -79 82 -119 93 -52 15 -147 13 -212 -5z"/>
<path d="M2004 3421 c-34 -21 -49 -39 -40 -48 3 -3 21 6 39 20 19 14 49 30 68
35 l34 10 -35 1 c-19 1 -49 -8 -66 -18z"/>
<path d="M1601 3084 c-1 -32 27 -139 35 -132 2 3 -4 41 -15 84 -12 50 -20 68
-20 48z"/>
<path d="M3465 2758 c0 -146 -3 -174 -28 -265 -26 -97 -37 -195 -17 -148 72
165 96 291 81 414 -9 73 -28 161 -34 161 -1 0 -2 -73 -2 -162z"/>
<path d="M1651 2713 c0 -34 6 -92 15 -130 9 -41 13 -86 10 -113 -8 -54 11 -43
25 16 7 30 3 60 -16 134 -13 52 -25 109 -28 125 -2 17 -5 2 -6 -32z"/>
<path d="M3382 2505 c0 -11 4 -31 8 -45 l8 -25 0 25 c0 14 -3 34 -8 45 l-9 20
1 -20z"/>
<path d="M1540 2474 c0 -68 37 -167 92 -250 61 -89 76 -85 22 6 -21 34 -55
112 -76 173 -33 99 -38 107 -38 71z"/>
<path d="M878 1592 c-21 -15 -38 -31 -38 -35 0 -7 51 26 85 55 24 20 -14 5
-47 -20z"/>
<path d="M2840 2445 c0 -5 21 -31 48 -59 26 -28 62 -69 80 -91 l34 -40 -29 54
c-26 48 -133 157 -133 136z"/>
<path d="M2151 2333 c-40 -59 -44 -69 -19 -42 31 34 85 119 75 119 -3 0 -28
-35 -56 -77z"/>
<path d="M1964 2228 l-19 -23 23 19 c21 18 27 26 19 26 -2 0 -12 -10 -23 -22z"/>
<path d="M3112 2168 c42 -112 88 -154 134 -123 32 21 30 26 -6 18 -40 -7 -71
21 -111 100 -16 31 -31 57 -33 57 -2 0 5 -24 16 -52z"/>
<path d="M1994 2088 c-16 -34 -41 -70 -56 -81 -24 -18 -28 -18 -57 -4 -36 18
-42 6 -9 -17 55 -39 115 3 143 98 9 32 15 59 13 61 -2 2 -17 -24 -34 -57z"/>
<path d="M3085 1880 c40 -77 97 -109 147 -83 15 7 33 23 39 36 l12 22 -25 -22
c-41 -38 -89 -31 -139 20 -23 23 -38 35 -34 27z"/>
<path d="M1426 2364 c-5 -10 -10 -75 -12 -144 l-3 -125 14 135 c15 138 15 169
1 134z"/>
<path d="M3942 1943 c18 -34 34 -60 36 -58 5 4 -33 76 -53 100 -9 11 -1 -8 17
-42z"/>
<path d="M3623 1213 c-33 -21 -74 -49 -89 -61 -26 -21 -23 -21 21 4 81 44 150
94 132 94 -2 0 -31 -17 -64 -37z"/>
<path d="M1792 1175 c32 -18 229 -85 249 -85 28 0 -16 20 -121 54 -58 19 -116
37 -130 40 -24 7 -24 6 2 -9z"/>
<path d="M3235 1140 c-55 -21 -154 -49 -220 -63 l-120 -26 65 0 c89 -1 191 22
275 63 59 28 122 67 105 65 -3 -1 -50 -18 -105 -39z"/>
<path d="M3190 1009 c-63 -33 -104 -57 -90 -54 36 8 187 85 201 101 16 19 18
20 -111 -47z"/>
<path d="M2895 944 c-38 -14 -110 -35 -160 -49 -54 -14 -78 -24 -60 -24 62 -2
295 73 295 94 0 3 -1 5 -2 4 -2 0 -34 -12 -73 -25z"/>
<path d="M2160 926 c0 -13 170 -57 239 -61 74 -5 72 -4 -59 23 -74 16 -145 32
-157 36 -13 4 -23 5 -23 2z"/>
<path d="M2385 1779 c-4 -6 -5 -12 -2 -15 2 -3 7 2 10 11 7 17 1 20 -8 4z"/>
<path d="M2688 1725 c-27 -45 -25 -60 5 -27 14 15 34 72 26 72 -2 0 -16 -21
-31 -45z"/>
</g>
</svg>